<svg width="200" height="200" viewBox="0 0 200 200" xmlns="http://www.w3.org/2000/svg">
  <!-- QR Code Pattern -->
  <rect width="200" height="200" fill="white"/>
  
  <!-- Corner squares -->
  <rect x="10" y="10" width="60" height="60" fill="black"/>
  <rect x="20" y="20" width="40" height="40" fill="white"/>
  <rect x="30" y="30" width="20" height="20" fill="black"/>
  
  <rect x="130" y="10" width="60" height="60" fill="black"/>
  <rect x="140" y="20" width="40" height="40" fill="white"/>
  <rect x="150" y="30" width="20" height="20" fill="black"/>
  
  <rect x="10" y="130" width="60" height="60" fill="black"/>
  <rect x="20" y="140" width="40" height="40" fill="white"/>
  <rect x="30" y="150" width="20" height="20" fill="black"/>
  
  <!-- Data pattern -->
  <rect x="80" y="10" width="10" height="10" fill="black"/>
  <rect x="100" y="10" width="10" height="10" fill="black"/>
  <rect x="80" y="30" width="10" height="10" fill="black"/>
  <rect x="110" y="30" width="10" height="10" fill="black"/>
  
  <rect x="10" y="80" width="10" height="10" fill="black"/>
  <rect x="30" y="80" width="10" height="10" fill="black"/>
  <rect x="50" y="80" width="10" height="10" fill="black"/>
  <rect x="70" y="80" width="10" height="10" fill="black"/>
  <rect x="90" y="80" width="10" height="10" fill="black"/>
  <rect x="110" y="80" width="10" height="10" fill="black"/>
  <rect x="130" y="80" width="10" height="10" fill="black"/>
  <rect x="150" y="80" width="10" height="10" fill="black"/>
  <rect x="170" y="80" width="10" height="10" fill="black"/>
  <rect x="190" y="80" width="10" height="10" fill="black"/>
  
  <rect x="80" y="100" width="10" height="10" fill="black"/>
  <rect x="120" y="100" width="10" height="10" fill="black"/>
  <rect x="160" y="100" width="10" height="10" fill="black"/>
  
  <rect x="80" y="120" width="10" height="10" fill="black"/>
  <rect x="100" y="120" width="10" height="10" fill="black"/>
  <rect x="140" y="120" width="10" height="10" fill="black"/>
  <rect x="180" y="120" width="10" height="10" fill="black"/>
  
  <rect x="80" y="140" width="10" height="10" fill="black"/>
  <rect x="120" y="140" width="10" height="10" fill="black"/>
  <rect x="160" y="140" width="10" height="10" fill="black"/>
  
  <rect x="80" y="160" width="10" height="10" fill="black"/>
  <rect x="100" y="160" width="10" height="10" fill="black"/>
  <rect x="140" y="160" width="10" height="10" fill="black"/>
  <rect x="180" y="160" width="10" height="10" fill="black"/>
  
  <rect x="80" y="180" width="10" height="10" fill="black"/>
  <rect x="120" y="180" width="10" height="10" fill="black"/>
  <rect x="160" y="180" width="10" height="10" fill="black"/>
  
  <!-- Additional data modules -->
  <rect x="90" y="50" width="10" height="10" fill="black"/>
  <rect x="110" y="50" width="10" height="10" fill="black"/>
  <rect x="130" y="50" width="10" height="10" fill="black"/>
  <rect x="150" y="50" width="10" height="10" fill="black"/>
  <rect x="170" y="50" width="10" height="10" fill="black"/>
  
  <rect x="90" y="70" width="10" height="10" fill="black"/>
  <rect x="130" y="70" width="10" height="10" fill="black"/>
  <rect x="170" y="70" width="10" height="10" fill="black"/>
  
  <!-- Text label -->
  <text x="100" y="15" text-anchor="middle" font-family="Arial, sans-serif" font-size="8" fill="black">UPI Payment</text>
</svg>